<?xml version="1.0" standalone="no"?>
<!DOCTYPE svg PUBLIC "-//W3C//DTD SVG 1.1//EN" "http://www.w3.org/Graphics/SVG/1.1/DTD/svg11.dtd" >
<!--
2013-9-30: Created.
-->
<svg>
<metadata>
Created by iconfont
</metadata>
<defs>

<font id="iconfont" horiz-adv-x="1024" >
  <font-face
    font-family="iconfont"
    font-weight="500"
    font-stretch="normal"
    units-per-em="1024"
    ascent="896"
    descent="-128"
  />
    <missing-glyph />
    
    <glyph glyph-name="x" unicode="x" horiz-adv-x="1001"
d="M281 543q-27 -1 -53 -1h-83q-18 0 -36.5 -6t-32.5 -18.5t-23 -32t-9 -45.5v-76h912v41q0 16 -0.5 30t-0.5 18q0 13 -5 29t-17 29.5t-31.5 22.5t-49.5 9h-133v-97h-438v97zM955 310v-52q0 -23 0.5 -52t0.5 -58t-10.5 -47.5t-26 -30t-33 -16t-31.5 -4.5q-14 -1 -29.5 -0.5
t-29.5 0.5h-32l-45 128h-439l-44 -128h-29h-34q-20 0 -45 1q-25 0 -41 9.5t-25.5 23t-13.5 29.5t-4 30v167h911zM163 247q-12 0 -21 -8.5t-9 -21.5t9 -21.5t21 -8.5q13 0 22 8.5t9 21.5t-9 21.5t-22 8.5zM316 123q-8 -26 -14 -48q-5 -19 -10.5 -37t-7.5 -25t-3 -15t1 -14.5
t9.5 -10.5t21.5 -4h37h67h81h80h64h36q23 0 34 12t2 38q-5 13 -9.5 30.5t-9.5 34.5q-5 19 -11 39h-368zM336 498v228q0 11 2.5 23t10 21.5t20.5 15.5t34 6h188q31 0 51.5 -14.5t20.5 -52.5v-227h-327z" />
    

    
    <glyph glyph-name="roundcheck" unicode="&#58967;" d="M512-64C264.96-64 64 136.96 64 384S264.96 832 512 832s448-200.96 448-448S759.04-64 512-64zM512 767.712C300.416 767.712 128.288 595.584 128.288 384c0-211.552 172.128-383.712 383.712-383.712 211.552 0 383.712 172.16 383.712 383.712C895.712 595.584 723.552 767.712 512 767.712zM726.976 502.816c-12.544 12.448-32.832 12.32-45.248-0.256l-233.28-235.84-103.264 106.112c-12.352 12.704-32.608 12.928-45.248 0.64-12.672-12.32-12.96-32.608-0.64-45.248l126.016-129.504c0.064-0.096 0.192-0.096 0.256-0.192 0.064-0.064 0.096-0.192 0.16-0.256 2.016-1.984 4.512-3.2 6.88-4.544 1.248-0.672 2.24-1.792 3.52-2.304 3.872-1.6 8-2.4 12.096-2.4 4.064 0 8.128 0.8 11.968 2.336 1.248 0.512 2.208 1.536 3.392 2.176 2.4 1.344 4.896 2.528 6.944 4.544 0.064 0.064 0.096 0.192 0.192 0.256 0.064 0.096 0.16 0.128 0.256 0.192l256.224 259.008C739.648 470.144 739.52 490.4 726.976 502.816z"  horiz-adv-x="1024" />

    
    <glyph glyph-name="roundclose" unicode="&#58969;" d="M512-64C264.96-64 64 136.96 64 384S264.96 832 512 832s448-200.96 448-448S759.04-64 512-64zM512 767.712C300.416 767.712 128.288 595.584 128.288 384c0-211.552 172.128-383.712 383.712-383.712 211.552 0 383.712 172.16 383.712 383.712C895.712 595.584 723.552 767.712 512 767.712zM557.056 382.624l138.368 136.864c12.576 12.416 12.672 32.672 0.256 45.248-12.416 12.576-32.704 12.672-45.248 0.256l-138.56-137.024-136.448 136.864c-12.512 12.512-32.736 12.576-45.248 0.064-12.512-12.48-12.544-32.736-0.064-45.248l136.256-136.672-137.376-135.904c-12.576-12.448-12.672-32.672-0.256-45.248 6.272-6.336 14.496-9.504 22.752-9.504 8.128 0 16.256 3.104 22.496 9.248l137.568 136.064 138.688-139.136c6.24-6.272 14.432-9.408 22.656-9.408 8.192 0 16.352 3.136 22.592 9.344 12.512 12.48 12.544 32.704 0.064 45.248L557.056 382.624z"  horiz-adv-x="1024" />

    
    <glyph glyph-name="add" unicode="&#58923;" d="M853.333333 278.666667C865.115407 278.666667 874.666667 288.217926 874.666667 300 874.666667 311.782074 865.115407 321.333333 853.333333 321.333333L170.666667 321.333333C158.884592 321.333333 149.333333 311.782074 149.333333 300 149.333333 288.217926 158.884592 278.666667 170.666667 278.666667L853.333333 278.666667ZM490.666667-41.333333C490.666667-53.115407 500.217926-62.666667 512-62.666667 523.782074-62.666667 533.333333-53.115407 533.333333-41.333333L533.333333 641.333333C533.333333 653.115408 523.782074 662.666667 512 662.666667 500.217926 662.666667 490.666667 653.115408 490.666667 641.333333L490.666667-41.333333Z"  horiz-adv-x="1024" />

    
    <glyph glyph-name="arrow-down" unicode="&#58888;" d="M0.452 639.5l129.959 0 382.041-382.043L894.495 639.5l129.957 0-512-512L0.452 639.5z"  horiz-adv-x="1025" />

    
    <glyph glyph-name="more" unicode="&#58881;" d="M80.729 254.87133333333327c45.627 0 79.845 36.854 79.845 83.359 0 48.26-34.217 85.113-79.845 85.113s-80.728-36.854-80.728-85.113c0-46.505 35.1-83.36 80.728-83.36v0zM512.439 254.87233333333324c45.627 0 79.85 36.855 79.85 83.36 0 48.26-34.223 85.113-79.849 85.113s-80.728-36.854-80.728-85.113c0-46.505 35.1-83.36 80.728-83.36v0zM944.15 254.87133333333327c45.627 0 79.85 36.855 79.85 83.36 0 48.26-34.223 85.113-79.849 85.113-45.627 0-80.722-36.854-80.722-85.113 0-46.505 35.094-83.36 80.722-83.359v0zM944.15 254.87133333333327z"  horiz-adv-x="1024" />

    
    <glyph glyph-name="link" unicode="&#58910;" d="M495.937 248.554c-8.805 18.098-1.468 40.114 16.635 48.917 17.611 9.782 40.114 1.959 48.917-15.654 14.186-27.884 18.587-59.19 14.186-89.033-4.893-29.349-18.098-57.724-41.092-79.735l-1.468-1.959-156.537-156.537h-0.49l-1.959-1.959c-27.884-26.907-64.573-41.092-100.772-41.092-37.179 0-74.354 14.676-102.729 43.050l-100.282 99.793v0.49l-1.959 1.959c-26.907 28.372-40.602 64.573-40.602 100.772 0 37.179 14.186 74.843 42.56 102.729l1.959 2.446 156.537 156.537c22.014 22.014 50.386 35.71 79.735 40.114 29.84 5.381 61.149 0.49 88.543-13.695 18.098-8.805 25.436-31.306 16.635-48.917-9.296-18.098-31.306-25.436-49.405-16.143-13.695 6.849-29.84 9.296-44.026 6.849-14.676-2.446-28.86-9.296-40.114-20.546l-158.007-158.007h-0.49c-13.206-14.186-20.546-32.775-20.546-51.365 0-17.611 6.849-36.198 19.568-49.405l0.978-1.468h0.49l100.282-100.282v-0.49c13.695-13.695 32.287-20.546 50.876-20.546 18.098 0 36.198 6.361 49.405 19.568l1.959 0.978v0.49l158.494 158.494c11.25 11.25 17.611 24.947 20.057 39.134 2.446 15.163 0 30.33-7.338 44.514zM374.132 206.481v0c-14.186-14.186-37.179-14.186-51.852 0-14.186 14.676-14.186 38.157 0 51.852l312.588 312.098c14.186 14.186 37.667 14.186 51.365 0 14.676-13.695 14.676-37.179 0-50.876l-312.098-313.077zM374.132-47.4v0c-14.676-12.72-35.71-11.741-49.405 1.959l49.405-1.959zM68.393 56.796v0c-12.72 14.186-12.233 35.71 1.959 49.897l-1.959-49.897zM513.059 528.855v0c8.805-18.587 1.468-40.114-16.143-48.917-18.587-9.296-40.114-1.959-49.405 16.143-13.695 27.395-18.587 58.703-13.206 88.543 4.403 29.84 18.098 57.236 40.114 80.224l1.959 0.978 156.537 156.537 1.468 2.935c28.372 26.907 65.061 40.114 101.26 40.114 37.179 0 74.354-13.695 102.729-43.050h0.49l99.793-99.793v-0.49l1.959-1.468c26.907-27.884 40.602-64.573 40.602-100.772 0-37.179-14.186-74.354-42.56-103.218l-1.959-1.468-156.048-156.537c-22.503-22.503-50.386-36.198-80.224-40.602-29.84-4.893-60.659-0.49-88.543 14.186-18.098 8.315-25.436 30.819-16.635 48.917 9.296 17.611 31.796 25.436 49.405 15.654 14.186-6.849 29.349-9.296 45.005-6.849 13.695 2.446 27.884 9.296 39.134 20.057v0l156.537 157.027 1.468 1.959h0.49c14.186 13.695 20.546 32.287 20.546 50.876 0 18.098-5.87 36.198-19.079 49.405l-1.468 1.959h-0.49l-100.282 100.282h0.49c-14.186 13.206-32.775 20.546-51.365 20.546-18.098 0-35.71-6.849-49.897-20.057l-0.978-0.49-158.494-158.494c-11.25-11.25-17.611-24.947-20.546-39.621-1.959-15.163 0-30.33 7.338-44.514zM634.374 825.298v0c14.676 12.72 36.198 11.25 50.386-2.935l-50.386 2.935zM940.603 720.613v0c12.233-13.695 12.233-36.198-1.959-49.405l1.959 49.405z"  horiz-adv-x="1024" />

    
    <glyph glyph-name="setting" unicode="&#58925;" d="M647.786-68.293c-0.001 0-0.001 0-0.003 0-16.508 0.001-32.553 7.161-42.918 19.15-14.12 16.234-58.859 58.451-95.48 58.451-36.366 0-81.796-42.46-94.844-57.333-10.34-11.787-26.272-18.824-42.622-18.824-7.786 0-15.135 1.567-21.843 4.659l-1.174 0.54-111.311 65.275-1.106 0.81c-20.265 14.877-27.976 43.971-17.937 67.68 0.076 0.184 10.267 24.839 10.267 47.32 0 68.227-52.931 123.737-117.991 123.737h-3.944c-0.239-0.005-0.478-0.009-0.718-0.009-18.637 0-33.81 17.361-38.659 44.229-0.388 2.15-9.499 53.116-9.499 93.272 0 40.154 9.11 91.122 9.498 93.272 4.908 27.21 20.413 44.69 39.376 44.221h3.945c65.061 0 117.991 55.508 117.991 123.737 0 22.477-10.184 47.127-10.289 47.373-10.027 23.685-2.267 52.778 18.082 67.607l1.153 0.841 117.475 67.665 1.222 0.546c6.614 2.957 13.86 4.458 21.535 4.458 16.31 0 32.277-6.884 42.712-18.416 13.903-15.268 57.852-54.973 93.422-54.973 35.237 0 78.916 38.92 92.773 53.918 10.375 11.298 26.227 18.063 42.379 18.063 7.83 0 15.21-1.554 21.932-4.617l1.19-0.542 113.459-66.105 1.122-0.821c20.298-14.858 28.030-43.953 17.982-67.678-0.075-0.182-10.265-24.838-10.265-47.318 0-68.229 52.931-123.737 117.991-123.737h3.944c18.939 0.442 34.467-17.008 39.376-44.218 0.387-2.152 9.498-53.118 9.498-93.273s-9.111-91.122-9.499-93.272c-4.911-27.212-20.434-44.626-39.376-44.22h-3.944c-65.060 0-117.991-55.508-117.991-123.737 0-22.477 10.184-47.125 10.288-47.371 10.022-23.669 2.278-52.763-18.039-67.61l-1.136-0.83-115.374-66.872-1.205-0.545c-6.599-2.988-13.816-4.501-21.443-4.501zM644.281 2.095c0.515-0.354 1.971-0.956 3.503-0.956 0.063 0 0.12 0.001 0.174 0.004l94.549 55.787c-2.601 6.339-1.256 30.409-1.256 62.501 0 95.97 58.835 174.618 149.201 179.541 1.301 7.529 8.363 49.895 8.363 81.686 0 31.784-7.059 74.135-8.362 81.686-90.366 4.923-149.203 83.571-149.203 179.541 0 32.135 5.382 56.25 7.963 62.537l-99.492 61.787c-0.123 0.009-0.271 0.016-0.443 0.016-1.808 0-3.498-0.69-4.058-1.085-1.779-1.918-17.153-18.265-39.231-34.554-32.684-24.114-63.591-36.34-91.863-36.34-28.548 0-59.703 12.468-92.597 37.056-22.214 16.605-37.658 33.264-39.441 35.217-0.566 0.405-2.273 1.115-4.095 1.115-0.145 0-0.272-0.004-0.379-0.012l-103.286-63.268c2.63-6.418 7.935-30.435 7.935-62.467 0-95.97-58.838-174.618-149.204-179.541-1.302-7.537-8.361-49.898-8.361-81.686 0-31.784 7.059-74.136 8.363-81.686 90.366-4.923 155.754-83.571 155.754-179.541 0-32.197-5.288-56.366-7.839-62.574l90.712-54.269c0.068-0.004 0.145-0.005 0.23-0.005 1.52 0 2.961 0.584 3.472 0.931 1.944 2.191 17.473 12.732 39.837 29.92 33.337 25.621 65.017 38.613 94.158 38.613 29.42 0 61.34-13.241 94.872-39.352 22.492-17.515 38.081-28.382 40.022-30.603zM509.77 216.499c-86.644 0-157.135 73.923-157.135 164.784s70.49 164.784 157.135 164.784 157.135-73.923 157.135-164.784c-0-90.861-70.49-164.784-157.135-164.784zM509.77 483.327c-57.174 0-97.135-42.086-97.135-102.043s39.961-102.043 97.135-102.043 90.582 42.086 90.582 102.043c0 59.957-33.408 102.043-90.582 102.043z"  horiz-adv-x="1024" />

    
    <glyph glyph-name="time" unicode="&#58922;" d="M510.119675-22.51964399999997c-108.830661 0-211.158211 42.36897-288.13642 119.30113-76.961836 77.009931-119.336946 179.37432-119.317503 288.237727 0 108.877733 42.396599 211.230865 119.380948 288.206004 76.964906 76.958766 179.298596 119.342062 288.150746 119.342062 108.854197 0 211.206306-42.380226 288.209074-119.333876 158.872381-158.924569 158.872381-417.483346-0.002047-576.371076C721.367937 19.877978999999982 618.988198-22.51964399999997 510.119675-22.51964399999997zM510.197446 744.873024c-96.123244 0-186.487322-37.418214-254.44611-105.362676-67.967998-67.941392-105.400538-158.320818-105.400538-254.490112-0.014326-96.16213 37.397748-186.54872 105.343233-254.506485C323.676355 62.55700999999999 414.033269 25.132655999999997 510.119675 25.132655999999997c96.140641 0 186.54565 37.453007 254.561743 105.458867 140.297326 140.285047 140.297326 368.582613 0 508.913709C696.709327 707.452763 606.331947 744.873024 510.197446 744.873024zM676.031379 223.53740200000004c-4.994758 0-9.971096 1.411139-14.789844 4.193509l-141.0382 85.48393c-0.785899 0.453325-1.585101 0.899486-2.426259 1.367137-4.235464 2.358721-10.033517 5.588275-12.053524 8.630564l-0.3776 0.569982-0.593518 0.341784c-20.308535 11.650341-24.571628 20.946055-24.571628 26.693965L480.180805 590.2442940000001c0 17.261129 14.038738 31.30396 31.29475 31.30396 17.264199 0 31.309076-14.042831 31.309076-31.30396l0-225.432309 141.876288-82.048691 0-0.004093 1.453095-0.841158c7.471159-4.303003 13.403265-11.31265 16.274662-19.228947 2.977821-8.206916 2.408863-16.550954-1.602498-23.500227-5.741771-9.945513-14.764262-15.651468-24.75173-15.651468C676.033425 223.53740200000004 676.033425 223.53740200000004 676.031379 223.53740200000004z"  horiz-adv-x="1024" />

    
    <glyph glyph-name="rocket" unicode="&#58900;" d="M668.014286 176.23200299999996s7.127328 42.600237-36.616965 94.623077c42.600237 119.335922 48.459688 228.103138 48.459688 228.103138s87.433328-20.066011 87.433328-106.410541c0-147.673317-99.276051-216.315674-99.276051-216.315674z m-241.152338 51.967582s-58.550511 187.91688-58.550511 266.044262c0 35.045167 3.867074 66.223261 10.035564 94.623077h266.947841c6.224772-28.462239 10.153244-59.70173 10.153244-94.623077 0-76.920904-58.310034-266.044262-58.310034-266.044262H426.861948z m84.896552 317.585125c-29.971615 0-54.31914-24.229844-54.31914-54.262858 0-30.089295 24.347524-54.43682 54.31914-54.43682 30.089295 0 54.380538 24.347524 54.380538 54.43682 0 30.033014-24.291243 54.262858-54.380538 54.262858zM500.094856 788.805606V862.824413h21.148669v-72.145134c24.167422-17.645892 89.729627-73.65451 119.335922-181.574428H383.116631c28.703739 104.895025 90.873684 160.365384 116.978225 179.700755zM355.868033 176.23200299999996s-99.158371 68.642356-99.15837 216.316697c0 86.34453 87.433328 106.410542 87.433328 106.410542s5.92085-108.767216 48.459688-228.103138c-43.806715-52.024887-36.734646-94.624101-36.734646-94.624101z m191.900612-10.871605l-17.763572 17.639752-18.853394-59.033511-22.472827 59.033511-15.350617-30.695093-22.478967 55.593156h121.692597l-24.77322-42.537815zM560.100508-61.956841000000054c-2.784416 0-4.900613 2.116197-4.900614 4.832052V74.60439399999996a4.879124 4.879124 0 0 0 4.900614 4.894474c2.654456 0 4.894474-2.240017 4.894473-4.894474v-131.729183c0-2.715855-2.240017-4.832052-4.894473-4.832052zM517.679349-28.90405099999998c-2.715855 0-4.894474 2.233877-4.894473 4.894473V107.65104499999995c0 2.784416 2.177596 4.955872 4.894473 4.955872 2.778276 0 4.894474-2.171456 4.894474-4.955872v-131.660623c0-2.660596-2.116197-4.894474-4.894474-4.894473zM475.320613-94.82441300000005c-2.778276 0-4.949732 2.233877-4.949732 5.012154V41.85450300000002c0 2.654456 2.171456 4.894474 4.949732 4.894473 2.660596 0 4.894474-2.240017 4.894473-4.894473v-131.666762c0-2.778276-2.233877-5.012154-4.894473-5.012154z"  horiz-adv-x="1024" />

    
    <glyph glyph-name="circle" unicode="&#58880;" d="M332.985 384c0-98.868 80.149-179.015 179.015-179.015s179.015 80.149 179.015 179.015c0 98.868-80.149 179.015-179.015 179.015-98.868 0-179.015-80.149-179.015-179.015z"  horiz-adv-x="1024" />

    
    <glyph glyph-name="arrow-left" unicode="&#58882;" d="M532.526499-8.817574000000036L139.506311 384.202615 532.526499 777.222803c12.258185 12.258185 12.432147 32.892131-0.187265 45.51052-12.707416 12.707416-32.995485 12.703323-45.511543 0.187265L75.166957 411.260877c-7.120165-7.120165-10.163477-17.065677-8.990768-26.624381-1.500167-9.755178 1.5104-20.010753 8.990768-27.491121l411.660734-411.660734c12.258185-12.258185 32.892131-12.432147 45.511543 0.187265 12.707416 12.707416 12.7023 32.995485 0.187265 45.51052z"  horiz-adv-x="1024" />

    
    <glyph glyph-name="arrow-right" unicode="&#58884;" d="M492.675886-8.817574000000036L885.696074 384.202615 492.675886 777.222803c-12.258185 12.258185-12.432147 32.892131 0.187265 45.51052 12.707416 12.707416 32.995485 12.703323 45.511543 0.187265l411.660734-411.660734c7.120165-7.120165 10.163477-17.065677 8.990768-26.624381 1.500167-9.755178-1.5104-20.010753-8.990768-27.491121L538.374694-54.51535899999999c-12.258185-12.258185-32.892131-12.432147-45.511543 0.187265-12.707416 12.707416-12.703323 32.995485-0.187265 45.51052z"  horiz-adv-x="1024" />

    
    <glyph glyph-name="success" unicode="&#59621;" d="M219.952 383.424l210.432-210.432-45.248-45.256-210.432 210.432zM799.672 633.736l45.256-45.256-460.464-460.464-45.256 45.256z"  horiz-adv-x="1024" />

    
    <glyph glyph-name="error" unicode="&#59623;" d="M806.4 632.8l-45.6 45.6-248.8-249.6-248.8 249.6-45.6-45.6 249.6-248.8-249.6-248.8 45.6-45.6 248.8 248.8 248.8-248.8 45.6 45.6-248.8 248.8z"  horiz-adv-x="1024" />

    
    <glyph glyph-name="filter" unicode="&#58883;" d="M631.215-128c-0.061-0-0.133-0.001-0.205-0.001-21.782 0-39.449 17.619-39.526 39.383l-0 590.719c0 9.762 3.686 19.183 10.24 26.419l259.072 288.631h-698.368l259.55-288.836c6.26-6.921 10.094-16.139 10.104-26.252l-0-355.427 63.078-50.654c17.067-13.653 19.661-38.434 5.871-55.296-7.379-8.958-18.473-14.625-30.891-14.625-9.476 0-18.181 3.3-25.028 8.814l-77.747 62.404c-9.014 7.236-14.737 18.25-14.746 30.602l0 359.269-308.429 343.313c-6.225 6.909-10.033 16.102-10.033 26.184 0 5.849 1.282 11.399 3.579 16.385 6.337 13.554 20.084 22.948 36.028 22.967l876.529-0c15.701 0 29.901-9.148 36.25-23.415 2.141-4.688 3.388-10.168 3.388-15.94 0-10.178-3.88-19.45-10.242-26.416l-308.811-343.146v-575.693c0-21.845-17.749-39.39-39.663-39.39z"  horiz-adv-x="1024" />

    
    <glyph glyph-name="search" unicode="&#58892;" d="M461.824 42.951c-228.807 0-414.151 186.709-414.151 416.882 0 230.229 185.344 416.939 414.151 416.939 228.75 0 414.151-186.709 414.151-416.939 0-230.172-185.401-416.882-414.151-416.882zM461.824 118.215c187.051 0 338.83 152.917 338.83 341.618 0 188.757-151.78 341.618-338.83 341.618-187.108 0-338.83-152.86-338.83-341.618 0-188.7 151.723-341.618 338.83-341.618zM755.769 74.069l143.474-144.498c6.708-6.267 15.745-10.115 25.682-10.115 20.799 0 37.66 16.861 37.66 37.66 0 9.837-3.772 18.793-9.947 25.501l-143.45 144.471c-6.708 6.267-15.745 10.115-25.682 10.115-20.799 0-37.66-16.861-37.66-37.66 0-9.837 3.772-18.793 9.947-25.501z"  horiz-adv-x="1024" />

    
    <glyph glyph-name="user" unicode="&#58893;" d="M512 318.578c-0.101-0-0.222-0-0.342-0-154.912 0-280.52 125.468-280.746 280.327 0.227 154.903 125.834 280.37 280.746 280.37 0.12 0 0.24-0 0.36-0 0.083 0 0.203 0 0.323 0 154.912 0 280.52-125.468 280.746-280.327-0.227-154.903-125.834-280.37-280.746-280.37-0.12 0-0.24 0-0.36 0zM512 398.791c110.933 0 200.818 89.6 200.818 200.078-0.194 110.542-89.85 200.079-200.419 200.079-0.14 0-0.28-0-0.42-0-0.097 0-0.237 0-0.377 0-110.549 0-200.193-89.504-200.419-200 0.162-110.588 89.831-200.157 200.419-200.157 0.14 0 0.28 0 0.42 0zM133.86 175.218c-23.098-9.746-39.017-32.2-39.026-58.374l0-75.315c0.007-34.901 28.301-63.191 63.204-63.191 2.063 0 4.103 0.099 6.116 0.292 99.53 9.902 215.43 15.564 332.651 15.569 111.168-0.001 233.194-5.69 363.754-16.954 1.619-0.147 3.502-0.231 5.404-0.231 34.906 0 63.204 28.297 63.204 63.204 0 0.001-0 0.003-0 0.004l0 72.874c0 26.51-16.498 50.233-41.358 59.335-131.641 48.356-262.656 72.533-393.33 72.533-128.228 0-248.377-23.268-360.676-69.746zM104.846 245.305c121.572 50.347 251.563 75.492 389.689 75.492 139.719 0 279.552-25.771 419.385-77.141 53.643-20.094 91.136-70.931 91.136-130.525 0-0.012-0-0.025-0-0.037l0-72.816c0-0.019 0-0.042 0-0.064 0-76.788-62.249-139.036-139.036-139.036-4.226 0-8.407 0.189-12.537 0.558-111.081 10.53-240.843 16.571-372.011 16.596-93.49-0.023-201.351-5.143-310.578-15.269-3.854-0.379-8.33-0.596-12.857-0.596-76.788 0-139.036 62.249-139.036 139.036 0 0.009 0 0.019 0 0.028l-0 75.319c0 56.206 33.849 106.951 85.845 128.455z"  horiz-adv-x="1024" />

    
    <glyph glyph-name="delete" unicode="&#58901;" d="M708.928 749.696V822.848C708.928 863.232 673.664 896 630.208 896H393.792c-43.52 0-78.784-32.768-78.784-73.152v-73.152H0v-73.152h118.144v-731.392c0-40.448 35.328-73.152 78.72-73.152h630.208c43.52 0 78.72 32.704 78.72 73.152V676.48H1024V749.696h-315.072zM393.856 822.848h236.288v-73.152H393.856V822.848z m433.216-877.696H196.928V676.48h630.144v-731.392z m-512 621.696h78.72v-512h-78.72v512z m157.504 0h78.72v-512h-78.72v512z m157.568 0h78.72v-512h-78.72v512z"  horiz-adv-x="1024" />

    
    <glyph glyph-name="edit" unicode="&#58903;" d="M912 226.56v-173.248c0-32.384-26.24-58.624-58.688-58.624h-672c-32.363 0.036-58.588 26.262-58.624 58.621l-0 661.379c0 32.384 26.24 58.624 58.624 58.624h303.36v74.688h-303.36c-73.6 0-133.312-59.712-133.312-133.312v-661.376c0-73.6 59.712-133.312 133.312-133.312h672c73.6 0 133.376 59.712 133.376 133.312v173.248h-74.688zM403.712 203.712l127.68 12.288 439.168 421.568-114.816 114.816-439.744-422.016-12.352-126.72zM354.432 374.656l475.968 456.96c6.691 6.421 15.793 10.375 25.818 10.375 10.346 0 19.709-4.211 26.468-11.013l167.618-167.554c6.766-6.754 10.952-16.092 10.952-26.407 0-10.598-4.419-20.164-11.514-26.956l-476.046-456.909c-6.277-6.044-14.686-9.914-23.992-10.373l-183.944-17.787c-1.089-0.113-2.354-0.177-3.633-0.177-20.607 0-37.312 16.705-37.312 37.312 0 1.279 0.064 2.544 0.19 3.79l18.099 185.443c0.994 9.826 5.666 18.403 12.598 24.458zM730.88 660.032l143.36-149.952 54.016 51.584-143.296 150.016z"  horiz-adv-x="1088" />

    
    <glyph glyph-name="dept" unicode="&#58890;" d="M477.342 675.446a236.386 236.386 0 0 0 463.163 0h334.926c78.612 0 142.415-63.803 142.415-142.572v-563.2a47.262 47.262 0 1 0-94.523 0v563.2a47.97 47.97 0 0 1-47.892 48.05H142.415a47.97 47.97 0 0 1-47.892-48.05v-563.2a47.262 47.262 0 1 0-94.523 0v563.2c0 78.77 63.724 142.572 142.415 142.572h334.927z m97.83 0h267.501a141.785 141.785 0 0 1-267.5 0z m-197.08-425.354h661.662a47.262 47.262 0 0 0 0-94.523H378.092a47.262 47.262 0 1 0 0 94.523z m0-283.569h661.662a47.262 47.262 0 0 0 0-94.523H378.092a47.262 47.262 0 0 0 0 94.523z"  horiz-adv-x="1417" />

    
    <glyph glyph-name="email" unicode="&#58891;" d="M1323.323 435.988l-617.708-309.17a47.262 47.262 0 0 0-43.717 0.71L94.523 435.12V-46.710000000000036a47.262 47.262 0 0 0-94.523 0V707.4259999999999A141.785 141.785 0 0 0 142.415 848.738H1275.43c78.612 0 142.415-63.488 142.415-141.942v-759.729a47.262 47.262 0 1 0-94.523 0v488.92z m0 100.037V706.718a47.655 47.655 0 0 1-47.892 47.419H142.415a47.262 47.262 0 0 1-47.892-46.79v-171.322c7.72 0 15.596-1.812 22.843-5.75l567.926-307.91 616.527 308.54a47.025 47.025 0 0 0 21.504 5.04z"  horiz-adv-x="1417" />

    
    <glyph glyph-name="user-o" unicode="&#58898;" d="M421.069 199.74800000000005a368.64 368.64 0 1 0 386.662 0c140.698-40.55 265.558-124.86 356.625-241.937a40.96 40.96 0 0 0-64.648-50.312A613.171 613.171 0 0 1 614.4 145.067a613.035 613.035 0 0 1-480.051-230.878 40.96 40.96 0 0 0-63.966 51.2A695.842 695.842 0 0 0 421.069 199.67999999999995zM614.4 226.98699999999997a286.72 286.72 0 1 1 0 573.44 286.72 286.72 0 0 1 0-573.44z"  horiz-adv-x="1228" />

    
    <glyph glyph-name="group" unicode="&#58907;" d="M866.462 526.572c2.205 9.295 8.428 15.675 23.394 15.675h253.4c56.084 0 101.298-45.134 101.298-101.612v-473.797a47.262 47.262 0 1 0-94.523 0V440.556c0 4.333-2.836 7.09-6.774 7.09H889.856c-26.073 0-22.843 10.318-22.843 36.47 0 3.86-0.236 7.877-0.551 11.894v-529.172a47.262 47.262 0 1 0-94.524 0V722.393a46.631 46.631 0 0 1-46.946 47.576H157.223a47.655 47.655 0 0 1-46.946-47.576v-755.555a47.262 47.262 0 1 0-94.523 0V722.393c0 78.296 63.803 142.1 141.47 142.1h567.768c78.454 0 141.47-62.859 141.47-142.1v-195.82z m0 0c-2.048-8.507-0.788-19.534 0-30.562v30.562z m-614.4-40.172h378.092a47.262 47.262 0 0 0 47.261-47.262v-189.046a47.262 47.262 0 0 0-47.261-47.261H252.062a47.262 47.262 0 0 0-47.262 47.261V439.138a47.262 47.262 0 0 0 47.262 47.262z m47.261-94.523v-94.523h283.57v94.523h-283.57z"  horiz-adv-x="1260" />

    
    <glyph glyph-name="tel" unicode="&#58908;" d="M94.523-46.710000000000036a47.262 47.262 0 0 0-94.523 0V707.4259999999999A141.785 141.785 0 0 0 142.415 848.738H1275.43c78.612 0 142.415-63.488 142.415-141.942v-759.729a47.262 47.262 0 1 0-94.523 0v759.73a47.655 47.655 0 0 1-47.892 47.418H142.415a47.262 47.262 0 0 1-47.892-46.789V-46.710000000000036z m378.092 564.618a47.262 47.262 0 1 0 0 94.523 47.262 47.262 0 0 0 0-94.523z m189.047 94.523h189.046a47.262 47.262 0 0 0 0-94.523H661.662a47.262 47.262 0 1 0 0 94.523z m-283.57-472.616h661.662a47.262 47.262 0 0 0 0-94.523H378.092a47.262 47.262 0 0 0 0 94.523z m-282.23 283.57h1225.492v-94.523H95.862v94.523z"  horiz-adv-x="1417" />

    
    <glyph glyph-name="arrow-up" unicode="&#59624;" d="M1023.5479999999998 128.4999999999999l-129.959 4.263256414560601e-14-382.04099999999994 382.0430000000002L129.505 128.5l-129.957 4.263256414560601e-14 512.0000000000001 511.9999999999998L1023.5479999999998 128.4999999999999z"  horiz-adv-x="1025" />

    
    <glyph glyph-name="message" unicode="&#58918;" d="M1.088 688.192v-449.984c0-92.16 76.864-168.832 171.584-168.832h258.368l-44.16-160.192 302.528 160.192h288c94.592 0 173.504 74.88 173.504 168.832v449.92c0 92.16-76.864 166.912-173.568 166.912H172.672C77.952 855.04 1.088 780.288 1.088 688.192z m739.584-224.64c0 44.16 35.52 78.656 80.896 78.656 45.312 0 80.832-36.48 80.832-78.656 0-44.16-37.44-78.592-80.832-78.592-45.44 0-80.896 34.496-80.896 78.592z m-246.528 0c0 44.16 35.52 78.656 80.896 78.656s80.832-36.48 80.832-78.656c0-44.16-37.504-78.592-80.832-78.592-45.44 0-80.896 34.496-80.896 78.592z m-246.528 0c0 44.16 35.456 78.656 80.832 78.656 45.44 0 80.896-36.48 80.896-78.656 0-44.16-37.504-78.592-80.896-78.592-43.328 0-80.832 34.496-80.832 78.592z"  horiz-adv-x="1152" />

    
    <glyph glyph-name="zan-o" unicode="&#58920;" d="M895.638588 13.432470999999964C880.64-64.39152899999999 803.478588-128 724.148706-128H84.510118A84.510118 84.510118 0 0 0 0-43.489881999999966V359.60470599999996C0 406.347294 37.827765 444.235294 84.510118 444.235294h168.05647L487.604706 867.448471c27.708235 37.586824 95.894588 30.117647 111.917176 21.744941 18.070588-9.396706 73.185882-41.622588 64.030118-110.832941l-36.743529-253.108706h277.684705c79.329882 0 131.915294-63.668706 116.976942-141.492706l-125.891765-370.326588z m-825.223529 310.814117v-332.378353c0-26.503529 21.504-47.947294 47.947294-47.947294h112.519529V372.133647H118.362353a47.887059 47.887059 0 0 1-47.947294-47.947294z m653.733647-380.265412c45.056 0 92.16 38.791529 100.653176 83.004236l125.891765 370.386823c3.011765 16.143059 0.240941 30.479059-7.951059 40.357647-8.192 9.999059-21.805176 15.480471-38.249412 15.480471H540.491294l48.00753 321.295059c7.228235 25.840941 2.409412 42.465882-14.456471 49.874823-16.926118 7.469176-29.997176 0.542118-39.273412-20.781176L302.983529 374.603294v-430.622118h421.165177z"  horiz-adv-x="1024" />

    
    <glyph glyph-name="collection" unicode="&#58921;" d="M557.107576 60.74002900000005l199.147635-109.038766c4.732474-2.558094 10.232377-3.51738 15.47647-2.558095a25.325133 25.325133 0 0 1 19.889183 29.290179l-37.987699 230.931956c-5.43595 32.999415 5.052236 66.574402 28.011132 89.917012l161.159935 163.526173c3.837141 3.901094 6.331283 9.017282 7.098712 14.581137a25.26118 25.26118 0 0 1-20.592659 28.77856l-222.746054 33.638939A97.911056 97.911056 0 0 0 633.210879 595.381721L533.57311 805.465208a23.918181 23.918181 0 0 1-43.743412 0L390.255881 595.381721a97.911056 97.911056 0 0 0-73.481257-55.574597l-222.682101-33.702892a24.046086 24.046086 0 0 1-13.941614-7.354521 26.156513 26.156513 0 0 1 0.447667-35.941223l161.159935-163.526173c23.022848-23.34261 33.447082-56.917596 28.011132-89.917012l-38.051651-230.868003a26.284418 26.284418 0 0 1 2.494141-16.115994 23.918181 23.918181 0 0 1 32.935464-10.680043l199.147635 109.038766a94.137867 94.137867 0 0 0 90.812344 0z m-255.937326-176.508501c-47.708457-26.028609-106.672529-6.970807-131.741853 42.656221a105.201625 105.201625 0 0 0-9.78471 64.463974l38.051651 230.868003a26.028609 26.028609 0 0 1-7.034759 22.511229L29.500644 408.257128a104.562101 104.562101 0 0 0-1.726714 143.636991c14.964851 15.988089 34.534272 26.412323 55.830406 29.60994l222.682102 33.702892a24.493752 24.493752 0 0 1 18.354326 13.877661L424.214582 839.1681C448.06881 889.498604 506.585216 910.155214 554.869244 885.3417c19.185707-9.912615 34.790081-26.092561 44.25503-46.1736l99.63777-210.083488a24.493752 24.493752 0 0 1 18.354326-13.877661l222.682102-33.702892c53.336264-8.057997 90.236774-59.603595 82.498538-115.114239a103.091197 103.091197 0 0 0-28.458798-58.132692l-161.159936-163.526173a26.028609 26.028609 0 0 1-7.034759-22.447276l38.115604-230.931956c9.081234-55.318788-26.540228-107.823671-79.684635-117.28862-21.104277-3.773189-42.848078-0.191857-61.841928 10.232377l-199.211587 109.038766a23.534467 23.534467 0 0 1-22.703086 0l-199.147635-109.038766z"  horiz-adv-x="1024" />

    
    <glyph glyph-name="zan" unicode="&#58924;" d="M902.144 40.05647099999999c-14.155294-75.414588-87.220706-137.095529-162.273882-137.09553H134.625882a79.992471 79.992471 0 0 0-80.052706 79.992471v394.541176c0 44.212706 35.84 79.992471 80.052706 79.992471h159.021177L516.035765 867.749647c26.262588 36.442353 90.714353 29.214118 105.953882 21.082353 17.046588-9.035294 69.210353-40.357647 60.536471-107.399529l-34.755765-245.338353h262.746353c75.113412 0 124.867765-61.680941 110.71247-137.09553l-119.085176-359.002353zM295.996235 383.337412a21.323294 21.323294 0 0 1-21.323294-21.323294v-359.604706c0-11.806118 9.517176-21.323294 21.323294-21.323294h24.033883a21.323294 21.323294 0 0 1 21.323294 21.323294v359.604706a21.323294 21.323294 0 0 1-21.323294 21.323294h-24.033883z"  horiz-adv-x="1024" />

    
    <glyph glyph-name="share" unicode="&#58926;" d="M1012.462933 581.8368a742.6048 742.6048 0 0 1-571.392-286.993067 40.96 40.96 0 1 0-64.580266 50.3808 824.456533 824.456533 0 0 0 623.684266 318.190934l-135.304533 135.236266a40.96 40.96 0 0 0 57.9584 57.9584L1103.872 675.4986670000001c-4.437333 4.369067 16.384-16.110933 20.138667-20.343467 10.6496-11.741867 16.861867-22.664533 16.861866-38.775467 0-16.110933-6.144-27.0336-16.861866-38.843733-3.822933-4.232533-24.576-24.712533-20.138667-20.2752l-181.0432-181.0432a40.96 40.96 0 1 0-57.9584 57.9584l147.592533 147.592533zM914.773333 218.65813300000002a40.96 40.96 0 1 0 81.92 0V76.79999999999995a177.493333 177.493333 0 0 0-177.493333-177.493333H204.8A177.493333 177.493333 0 0 0 27.306667 76.79999999999995V622.933333A177.493333 177.493333 0 0 0 204.8 800.426667h280.576a40.96 40.96 0 1 0 0-81.92H204.8A95.573333 95.573333 0 0 1 109.226667 622.933333v-546.133333A95.573333 95.573333 0 0 1 204.8-18.77333299999998h614.4a95.573333 95.573333 0 0 1 95.573333 95.573333V218.7264z"  horiz-adv-x="1160" />

    
    <glyph glyph-name="collection_fill" unicode="&#58927;" d="M500.317885-6.665753999999993l-199.147635-109.038766c-47.708457-26.092561-106.672529-7.034759-131.741853 42.592269a105.201625 105.201625 0 0 0-9.78471 64.463974l38.051651 230.868003a26.028609 26.028609 0 0 1-7.034759 22.511229L29.500644 408.257128a104.562101 104.562101 0 0 0-1.726714 143.636991c14.964851 15.988089 34.534272 26.412323 55.830406 29.60994l222.682102 33.702892a24.493752 24.493752 0 0 1 18.354326 13.877661L424.214582 839.1681C448.06881 889.498604 506.585216 910.155214 554.869244 885.3417c19.185707-9.912615 34.790081-26.092561 44.25503-46.1736l99.63777-210.083488a24.493752 24.493752 0 0 1 18.354326-13.877661l222.682102-33.702892c53.336264-8.057997 90.236774-59.603595 82.498538-115.114239a103.091197 103.091197 0 0 0-28.458798-58.132692l-161.159936-163.526173a26.028609 26.028609 0 0 1-7.034759-22.447276l38.115604-230.931956c9.081234-55.318788-26.540228-107.823671-79.684635-117.28862-21.104277-3.773189-42.848078-0.191857-61.841928 10.232377l-199.211587 109.038766a23.534467 23.534467 0 0 1-22.703086 0z"  horiz-adv-x="1024" />

    


  </font>
</defs>
</svg>
